<?xml version="1.0" ?>
<!-- Uploaded to: SVG Repo, www.svgrepo.com, Generator: SVG Repo Mixer Tools -->
<svg width="800px" height="800px" viewBox="0 0 24 24" version="1.1" xml:space="preserve" xmlns="http://www.w3.org/2000/svg" xmlns:xlink="http://www.w3.org/1999/xlink">
<style type="text/css">
	.st0{opacity:0.2;fill:none;stroke:#000000;stroke-width:5.000000e-02;stroke-miterlimit:10;}
</style>
<g id="Layer_Grid"/>
<g id="Layer_2">
<path d="M5,16c-1.1,0-2,0.9-2,2c0,1.7,1.3,3,3,3h12c1.7,0,3-1.3,3-3c0-1.1-0.9-2-2-2h-6v-1h7c0.6,0,1-0.4,1-1c0-4.6-3.5-8.4-8-8.9   V5h1c0.6,0,1-0.4,1-1s-0.4-1-1-1h-4C9.4,3,9,3.4,9,4s0.4,1,1,1h1v0.1C6.5,5.6,3,9.4,3,14c0,0.6,0.4,1,1,1h7v1H5z M5.1,13   C5.6,9.6,8.5,7,12,7s6.4,2.6,6.9,6H5.1z M19,18c0,0.6-0.4,1-1,1H6c-0.6,0-1-0.4-1-1H19z"/>
</g>
</svg>